<svg width="37" height="45" viewBox="0 0 37 45" fill="none" xmlns="http://www.w3.org/2000/svg">
<mask id="mask0_100_21134" style="mask-type:luminance" maskUnits="userSpaceOnUse" x="5" y="14" width="22" height="27">
<path d="M26.0343 14.2793H5.0127V40.9449H26.0343V14.2793Z" fill="white"/>
</mask>
<g mask="url(#mask0_100_21134)">
<path d="M16.7048 40.8159C18.7352 40.6188 20.6306 39.9662 22.1335 38.9626C22.888 38.4578 23.9614 37.4049 24.4154 36.7154C25.0901 35.6995 25.587 34.4804 25.8507 33.169C25.955 32.658 25.9673 31.7652 25.9918 23.4472L26.0164 14.2858H19.7596V22.6715C19.7596 28.1819 19.735 31.2788 19.6859 31.6975C19.6062 32.4425 19.3608 33.3352 19.1093 33.7908C18.7965 34.3696 18.2199 34.9237 17.6249 35.2131C15.9748 36.0258 13.5641 35.7302 12.4231 34.5851C11.8404 34.0002 11.4417 33.0582 11.2761 31.876C11.2331 31.5867 11.2086 28.1942 11.2086 22.8438V14.2734H5.02539V22.9485C5.02539 31.6482 5.03766 32.387 5.26462 33.4891C5.81056 36.2043 7.49744 38.3654 10.086 39.6584C11.9754 40.6127 14.429 41.0437 16.7048 40.8159Z" fill="#4500A8"/>
</g>
<mask id="mask1_100_21134" style="mask-type:luminance" maskUnits="userSpaceOnUse" x="3" y="12" width="33" height="7">
<path d="M35.7569 12.5234H3.90234V18.5079H35.7569V12.5234Z" fill="white"/>
</mask>
<g mask="url(#mask1_100_21134)">
<path fill-rule="evenodd" clip-rule="evenodd" d="M5.12886 17.9719C5.31289 18.0396 5.55212 18.0581 5.79748 18.0827C5.78522 18.095 5.77295 18.1135 5.77295 18.1381C5.91403 18.1443 5.96924 18.095 6.11646 18.1073C6.07352 18.1381 6.11032 18.1566 6.18393 18.1504C6.14099 18.1874 6.01218 18.1627 6.01218 18.1196C5.98151 18.1258 5.98764 18.1504 6.01218 18.1504C5.66253 18.1258 5.30062 18.1874 5.00005 18.1258C5.1718 18.2489 5.74841 18.2428 6.01218 18.3167C5.99991 18.3474 5.88336 18.329 5.90176 18.2859C5.87109 18.2982 5.82202 18.2982 5.81589 18.329C5.58279 18.2859 5.31289 18.2612 5.07979 18.2797C4.80989 18.175 4.45411 18.1381 4.30076 17.9596C4.29462 17.8426 4.32529 17.7872 4.30076 17.6887C4.36823 17.5717 4.44798 17.4547 4.57679 17.3747C4.48478 17.2577 4.42957 17.1715 4.42344 17.0545C4.45411 17.0299 4.58293 17.0052 4.49091 16.9806C4.53385 16.9683 4.57679 16.9437 4.61973 16.9252C4.60746 16.8883 4.50318 16.8821 4.55226 16.839C4.62587 16.8267 4.632 16.8636 4.70561 16.8513C4.69334 16.7713 4.53385 16.7343 4.48478 16.6235C4.43571 16.4942 4.52772 16.3341 4.52159 16.1679C4.73015 16.1679 4.66267 15.9586 4.95097 15.977C4.73015 15.8908 4.40504 15.7923 4.129 15.7862C4.07993 15.7308 4.00632 15.5768 4.129 15.5337C4.10446 15.503 4.07379 15.4845 4.04312 15.4599C4.08606 15.4229 4.26395 15.4599 4.19648 15.386C4.41731 15.349 4.69334 15.3983 4.84669 15.2813C4.84669 15.2444 4.76695 15.2567 4.73628 15.2382C4.73015 15.2013 4.77308 15.1582 4.76082 15.1212C4.63813 15.0904 4.70561 15.072 4.58906 15.0658C4.61973 15.0289 4.65654 14.9981 4.74241 14.9919C4.67494 14.955 4.55226 14.955 4.52159 14.8996C4.76695 14.8318 4.87736 14.8749 5.14727 14.8626C4.75468 14.7888 4.40504 14.6964 4.08606 14.5733C4.07993 14.5178 4.07993 14.4501 4.129 14.4563C4.08606 14.4132 4.05539 14.444 4.01859 14.4686C3.99405 14.3455 3.98178 14.2716 3.86523 14.1977C3.90817 14.093 4.06153 14.1423 4.18421 14.1115C4.15967 14.0438 4.13514 13.9822 4.03086 13.9699C4.09833 13.8406 4.46638 13.8591 4.58906 13.8098C4.53999 13.7236 4.40504 13.7975 4.28235 13.8098C4.31302 13.7544 4.23942 13.7667 4.23942 13.7236C4.62587 13.7113 4.65654 13.5943 5.06139 13.6374C5.06752 13.268 5.34969 13.0771 5.50305 12.8001C5.6932 12.837 5.77295 12.7693 5.86496 12.7139C5.87109 12.6769 5.74841 12.7262 5.75454 12.6831C5.92017 12.6338 6.1594 12.64 6.40476 12.6277C6.63172 12.603 6.82188 12.6031 6.96297 12.6646C8.07324 12.523 8.94429 12.6338 10.1098 12.5723C10.1343 12.6154 10.0362 12.5969 10.0423 12.6277C10.3981 12.6277 11.0299 12.523 11.3795 12.6031C11.4531 12.5907 11.4102 12.6461 11.447 12.6585C11.723 12.6523 11.9623 12.5538 12.1402 12.6523C12.5266 12.6769 12.956 12.56 13.2382 12.6461C14.373 12.6215 15.2808 12.5723 16.2378 12.6831C16.7776 12.7139 17.2192 12.6708 17.7652 12.6954C17.6854 12.7631 17.5075 12.7631 17.3603 12.7816C17.5566 12.8062 17.8817 12.8124 18.1577 12.7878C19.0717 12.72 20.0287 12.7447 20.961 12.7816C21.004 12.8124 20.9549 12.7939 20.9365 12.8247C21.1205 12.8678 21.3168 12.8124 21.4763 12.7939C21.5192 12.8247 21.4763 12.8309 21.4763 12.8678C21.6603 12.8801 21.6051 12.8247 21.7155 12.8124C21.8198 12.8001 21.6849 12.8493 21.7585 12.8555C21.8014 12.8616 21.8014 12.8309 21.8014 12.8124C22.0468 12.837 22.2431 12.8432 22.5375 12.8185C22.6234 12.8124 22.5252 12.8555 22.5804 12.874C22.9424 12.8801 23.4576 12.7939 23.8563 12.837C24.0465 12.8616 24.1631 12.837 24.3716 12.8309C24.5556 12.8309 24.7274 12.9047 24.9298 12.9232C25.0954 12.9355 25.3469 12.8801 25.5984 12.9171C25.5923 12.9417 25.531 12.9232 25.531 12.9478C26.2671 12.9232 27.1688 12.9171 27.8558 12.8432C28.69 12.8924 29.6592 12.7631 30.426 12.7693C30.4015 12.7939 30.3769 12.8001 30.3156 12.8001C31.0578 12.8555 32.1926 12.8678 33.1373 12.837C33.2232 12.8309 33.2293 12.7631 33.3581 12.7816C33.4133 12.7016 33.5912 12.6954 33.7016 12.6646C33.7262 12.6585 33.7875 12.6215 33.812 12.6215C34.1555 12.6092 34.0513 12.8678 34.2476 13.0032C34.3518 12.9602 34.45 12.9478 34.5481 13.0032C34.542 13.0894 34.3825 13.0833 34.3396 13.151C34.3702 13.1756 34.4622 13.1941 34.4684 13.151C34.5175 13.1818 34.5175 13.2249 34.4684 13.2557C34.5481 13.2618 34.5175 13.2064 34.5972 13.2126C34.6033 13.2434 34.5849 13.2495 34.5727 13.268C34.6401 13.2742 34.6401 13.2372 34.6831 13.268C34.6892 13.3542 34.6769 13.4342 34.5972 13.465C35.0327 13.5512 35.3824 13.7852 35.7443 13.9699C35.7381 14.0561 35.6277 14.0807 35.6155 14.1669C35.3517 14.2162 35.1799 14.2469 34.861 14.2531C34.8119 14.2839 34.8978 14.3331 34.8364 14.3701C34.7506 14.3578 34.6156 14.3639 34.5604 14.4255C34.6401 14.4501 34.6769 14.4317 34.7812 14.4563C34.769 14.4932 34.7076 14.4932 34.6953 14.5302C34.8364 14.6102 34.6156 14.7333 34.6953 14.8319C34.6585 14.8626 34.5727 14.8072 34.4991 14.8195C34.6156 14.8626 34.3825 14.8442 34.3457 14.8749C34.3518 14.9057 34.5297 14.8442 34.4745 14.9057C34.6953 14.8811 34.6279 14.9119 34.7935 14.9057C34.7628 15.1274 34.4377 15.2074 34.0881 15.3059C34.1371 15.349 34.2169 15.4291 34.1739 15.4906C34.2046 15.5214 34.2966 15.466 34.3457 15.4599C34.3457 15.503 34.2905 15.5091 34.2782 15.5461C34.3273 15.583 34.3212 15.5214 34.3886 15.5337C34.3212 15.6138 34.2046 15.5891 34.1126 15.6384C34.2046 15.6877 34.315 15.6384 34.4316 15.6384C34.4254 15.663 34.3641 15.6507 34.3886 15.6938C34.4438 15.6938 34.4316 15.6446 34.5175 15.663C34.5236 15.7061 34.45 15.6938 34.4745 15.7492C34.5849 15.7369 34.7199 15.7184 34.818 15.7369C34.818 15.7862 34.7444 15.7923 34.7076 15.8231C34.7812 15.8477 34.8303 15.8108 34.9284 15.8108C34.9346 15.8662 34.9346 15.9401 34.7751 15.9586C34.7812 15.9893 34.7751 16.0078 34.7506 16.0324C34.8364 16.0694 34.8794 16.0448 35.0695 16.0632C35.1063 16.131 34.9837 16.1741 35.0021 16.2172C35.0573 16.3218 35.1861 16.2972 35.3517 16.2972C35.2781 16.3526 35.3149 16.3895 35.2413 16.4388C35.3517 16.4819 35.272 16.5312 35.2658 16.6235C35.229 16.6235 35.2229 16.6112 35.1799 16.6112C35.1309 16.7651 34.7506 16.6974 34.7076 16.8513C34.8119 16.8821 34.7444 17.0114 34.8364 17.0483C34.7137 17.233 34.8242 17.5655 34.4316 17.5717C34.4561 17.6271 34.5236 17.6579 34.6524 17.6517C34.6279 17.7194 34.6953 17.7256 34.7812 17.7256C34.7444 17.7995 34.7321 17.8056 34.8242 17.8364C34.7321 17.9596 34.7506 18.0827 34.6585 18.2612C33.7691 18.212 32.5361 18.2181 31.751 18.1689C31.7264 18.1689 31.7387 18.1812 31.7264 18.1997C31.5608 18.1196 31.2909 18.1689 31.1253 18.2243C31.1376 18.212 31.1498 18.1997 31.1498 18.1812C31.0578 18.1751 31.0271 18.2058 30.929 18.1935C30.7388 18.1627 30.0579 18.2489 29.6102 18.2612C29.1256 18.2674 28.6226 18.3351 28.3833 18.4029C28.3036 18.2797 28.0582 18.329 27.8006 18.3351C27.7331 18.3413 27.7638 18.2859 27.7147 18.2797C27.5859 18.3474 27.1994 18.2428 27.0461 18.329C27.0338 18.3659 27.0522 18.3782 27.1136 18.3721C26.9602 18.4213 26.7701 18.3659 26.5983 18.4029C26.6106 18.4152 26.6474 18.4152 26.6412 18.446C26.3407 18.4336 26.0278 18.3782 25.8438 18.3043C25.7395 18.3351 25.6782 18.292 25.58 18.2736C25.3224 18.2366 24.9421 18.3043 24.6354 18.3105C23.6969 18.3228 22.7706 18.2428 21.8996 18.3043C21.8873 18.292 21.8505 18.292 21.8566 18.2612C21.1757 18.2736 20.6298 18.3167 19.9612 18.3167C19.955 18.3536 20.0041 18.3536 20.0471 18.3598C19.8753 18.3721 19.7097 18.3228 19.5747 18.292C19.4214 18.3967 19.311 18.2797 19.1024 18.2859C19.0901 18.2551 19.1453 18.2612 19.1453 18.2428C18.446 18.1935 17.8142 18.4152 17.1027 18.2982C17.072 18.3228 17.0291 18.3351 16.9739 18.3413C16.9984 18.2551 17.1947 18.2736 17.2928 18.2366C16.9677 18.2366 16.5629 18.2797 16.1703 18.1997C16.0292 18.329 15.6489 18.2489 15.336 18.2859C15.3299 18.2612 15.3606 18.2612 15.3606 18.2428C15.2563 18.2428 15.2011 18.2181 15.0968 18.212C15.0968 18.2612 15.1766 18.2551 15.2502 18.2551C15.0784 18.329 14.833 18.2058 14.7533 18.3413C14.6368 18.329 14.557 18.329 14.4895 18.3721C14.4834 18.3474 14.5141 18.3474 14.5141 18.329C13.9191 18.2489 13.2382 18.2612 12.4653 18.2551C12.4714 18.3105 12.6125 18.2797 12.6616 18.3105C11.9255 18.3844 11.1035 18.1689 10.3551 18.3228C10.4656 18.3659 10.7048 18.3598 10.7845 18.3721C10.8275 18.3782 10.9256 18.3598 10.9379 18.3844C10.6925 18.3782 10.6128 18.4213 10.3981 18.4152C10.3613 18.4275 10.3551 18.4583 10.2877 18.4583C10.3306 18.4275 10.2754 18.4152 10.2877 18.3721C10.1957 18.3598 10.1711 18.3844 10.1159 18.4029C9.99936 18.3351 9.88895 18.3659 9.75399 18.4029C9.00563 18.2612 8.05484 18.3905 7.20833 18.3351C7.41076 18.2612 7.71133 18.3351 7.90149 18.2489C7.86468 18.212 7.69293 18.2736 7.72973 18.1751C7.63772 18.1689 7.64386 18.2181 7.55798 18.2181C7.52731 18.2058 7.52731 18.1689 7.55798 18.1443C7.38622 18.1812 7.05498 18.175 6.84642 18.095H7.04271C6.58879 18.0581 5.90176 17.978 5.3865 17.9903C5.34969 17.9411 5.30675 18.015 5.12886 17.9719ZM20.6359 18.212C20.5255 18.2181 20.4151 18.2058 20.5071 18.1566C20.4212 18.1504 20.3967 18.1874 20.3354 18.1997C20.4274 18.1997 20.3844 18.2305 20.3599 18.2551C20.4396 18.2058 20.6237 18.3043 20.6359 18.212ZM10.1588 18.3043C10.1895 18.3043 10.2018 18.329 10.2018 18.292C10.0914 18.292 9.98096 18.3043 9.91962 18.292C9.93188 18.3474 10.1036 18.3413 10.1588 18.3043ZM16.1089 17.9472C16.1335 17.898 15.9863 17.9165 15.9985 17.9472C16.0537 17.9472 16.0599 17.978 16.1089 17.9472ZM15.9556 17.9165C15.882 17.9226 15.7532 17.9041 15.7164 17.9288C15.8329 17.9411 15.882 17.9842 15.9556 17.9165ZM19.1637 17.2454C19.1085 17.2023 18.9797 17.2515 18.9675 17.2023C18.9 17.2023 18.857 17.2454 18.8141 17.2146V17.27C18.9184 17.2638 19.0717 17.27 19.1637 17.2454ZM9.06697 16.5558C8.9995 16.5681 8.90749 16.5681 8.89522 16.6112C8.98109 16.6112 9.08537 16.6174 9.06697 16.5558ZM8.59464 16.4573C8.29407 16.4881 8.72346 16.5004 8.7664 16.4573H8.59464ZM28.138 15.5337C28.1257 15.5214 28.0091 15.5214 28.0091 15.5645C28.0644 15.5584 28.138 15.5707 28.138 15.5337ZM21.7094 14.758C21.6787 14.8072 21.8382 14.8134 21.8628 14.7888C21.7707 14.8011 21.8014 14.7395 21.7094 14.758ZM21.3659 14.7641C21.1757 14.7395 21.0162 14.7641 20.7832 14.758C20.8997 14.7703 21.2432 14.8195 21.3659 14.7641ZM20.2433 14.758C20.2802 14.758 20.317 14.758 20.3108 14.7888C20.4396 14.758 20.6359 14.7888 20.7402 14.7888C20.501 14.7395 20.3906 14.721 20.2433 14.758ZM22.5068 14.6841C22.6541 14.6595 22.8626 14.721 22.9117 14.6718C22.6541 14.6348 22.0959 14.6225 21.8137 14.6779C22.0406 14.6902 22.1817 14.7272 22.3964 14.7026C22.2308 14.6533 22.5498 14.7149 22.5498 14.7149C22.5314 14.7087 22.513 14.7026 22.5068 14.6841ZM20.09 14.7026H19.9366C19.9305 14.758 20.0839 14.721 20.09 14.7026ZM21.7523 14.6779C21.7646 14.6779 21.7769 14.6779 21.7769 14.6656C21.6849 14.6595 21.3904 14.6779 21.6235 14.6779C21.6665 14.7087 21.6971 14.6656 21.7339 14.6902C21.7339 14.6964 21.7339 14.7026 21.7585 14.7026C21.7523 14.6902 21.7523 14.6841 21.7523 14.6779ZM22.9792 14.5856C23.0037 14.5548 23.0589 14.5486 23.0896 14.5302C22.6234 14.5055 21.8137 14.5302 21.28 14.5425C21.7585 14.6102 22.4148 14.5302 22.9792 14.5856ZM7.49664 14.013C7.27581 13.9268 6.9507 13.8898 6.67466 13.9022C6.96297 13.9206 7.26967 14.0561 7.49664 14.013ZM8.44743 13.8652C8.37382 13.8221 8.19593 13.8283 8.12845 13.8652C8.13459 13.8344 8.12232 13.816 8.08551 13.8098C8.04871 13.8406 8.09778 13.8406 8.06098 13.8652C8.17752 13.9268 8.30021 13.896 8.44743 13.8652ZM8.83388 13.8529C8.748 13.8591 8.71119 13.8283 8.61305 13.8406C8.61918 13.9145 8.83388 13.8837 8.83388 13.8529ZM6.95683 13.7359C6.88322 13.7236 6.82802 13.7298 6.69307 13.7236C6.6992 13.7852 6.88322 13.7482 6.95683 13.7359ZM26.1566 13.0894C26.2057 13.0648 26.3652 13.1141 26.4327 13.0771C26.3897 13.0279 26.1873 13.034 26.1566 13.0894ZM16.7837 13.0156C16.8634 13.0032 16.9064 13.0525 16.9555 13.0156C16.8757 12.9478 16.6917 12.9725 16.5506 12.9786C16.3114 12.9848 16.0783 13.0217 15.839 13.0032C16.0599 13.0648 16.5997 13.0217 16.7837 13.0156ZM15.4894 13.0032C15.3974 12.9909 15.1704 13.0032 15.0355 13.034C15.1888 13.0217 15.4649 13.0956 15.4894 13.0032ZM14.1706 13.0402C14.1767 12.9725 14.3791 13.0463 14.3914 12.9848C14.281 12.9602 14.2074 12.9848 14.1092 12.9971C14.1031 12.9602 14.097 12.9478 14.0417 12.9109C13.5878 13.034 13.1646 12.837 12.7229 12.9601C13.2014 13.034 13.6982 12.9602 14.1706 13.0402ZM18.1332 12.9601C18.2436 12.9601 18.3786 13.0156 18.4338 12.9294C18.0473 12.9047 17.6609 12.9171 17.2683 12.9971C17.5566 12.9909 17.8694 12.9601 18.1332 12.9601Z" fill="#FF8330"/>
</g>
<mask id="mask2_100_21134" style="mask-type:luminance" maskUnits="userSpaceOnUse" x="17" y="1" width="12" height="22">
<path d="M28.212 1.08398H17.373V22.2576H28.212V1.08398Z" fill="white"/>
</mask>
<g mask="url(#mask2_100_21134)">
<path d="M28.2182 8.39826H25.8995V22.239H19.6917V8.39826H17.373L22.7895 1.12695L28.2182 8.39826Z" fill="#4500A8"/>
</g>
</svg>
